<svg id="svg" version="1.1" xmlns="http://www.w3.org/2000/svg" xmlns:xlink="http://www.w3.org/1999/xlink" width="400" height="223.52941176470588" viewBox="0, 0, 400,223.52941176470588"><g id="svgg"><path id="path0" d="M274.421 55.815 C 247.810 57.848,229.806 73.739,229.108 95.811 C 228.530 114.060,240.218 126.490,266.488 135.563 C 279.743 140.141,283.422 143.120,283.422 149.273 C 283.422 154.931,280.032 158.134,272.638 159.463 C 263.194 161.160,245.622 157.281,234.263 150.991 C 233.379 150.502,232.939 150.343,232.887 150.493 C 232.675 151.105,226.025 178.189,226.025 178.441 C 226.025 179.052,232.736 181.887,237.790 183.410 C 252.005 187.695,270.554 188.598,285.027 185.710 C 308.101 181.106,321.577 166.733,321.567 146.738 C 321.558 127.670,311.253 115.915,287.077 107.395 C 274.518 102.970,269.380 100.092,267.727 96.560 C 265.802 92.447,267.497 87.420,271.577 85.139 C 278.781 81.112,293.656 82.710,306.641 88.905 C 307.990 89.548,309.141 90.028,309.198 89.970 C 309.291 89.877,316.214 63.184,316.219 62.898 C 316.220 62.835,315.479 62.459,314.572 62.062 C 303.619 57.264,287.756 54.796,274.421 55.815 M201.720 83.901 C 201.449 84.172,201.596 88.915,201.884 89.203 C 203.225 90.544,205.924 88.274,205.165 86.443 C 204.802 85.566,202.070 83.551,201.720 83.901 " stroke="none" fill="#74c4ec" fill-rule="evenodd"></path><path id="path1" d="M179.679 3.565 C 167.273 4.785,159.688 14.682,161.672 27.064 C 163.475 38.321,174.834 45.271,187.118 42.632 C 198.926 40.096,205.487 29.551,202.411 18.056 C 199.786 8.245,190.739 2.479,179.679 3.565 M162.389 63.503 L 162.389 68.539 165.463 69.314 C 173.213 71.269,188.692 77.396,199.240 82.685 C 200.439 83.287,201.502 83.779,201.602 83.779 C 201.722 83.779,201.783 79.569,201.783 71.123 L 201.783 58.467 182.086 58.467 L 162.389 58.467 162.389 63.503 M162.389 128.788 L 162.389 184.848 182.086 184.848 L 201.783 184.848 201.783 136.986 C 201.783 89.131,201.782 89.123,201.421 88.813 C 199.288 86.982,187.527 81.316,179.353 78.183 C 174.676 76.389,163.330 72.727,162.453 72.727 C 162.417 72.727,162.389 97.955,162.389 128.788 " stroke="none" fill="#145c84" fill-rule="evenodd"></path><path id="path2" d="M362.764 20.591 C 360.536 21.217,358.877 22.624,357.876 24.737 L 357.308 25.936 357.214 36.988 C 357.162 43.066,357.102 48.056,357.080 48.077 C 357.059 48.098,352.088 48.138,346.034 48.166 L 335.027 48.217 333.828 48.785 C 327.481 51.792,328.091 60.862,334.782 62.944 C 335.788 63.257,336.580 63.280,346.535 63.280 L 357.209 63.280 357.259 74.376 L 357.308 85.472 357.876 86.671 C 361.025 93.318,370.820 92.084,372.189 84.868 C 372.299 84.285,372.371 79.864,372.371 73.594 L 372.371 63.280 382.879 63.280 C 389.980 63.280,393.693 63.215,394.332 63.079 C 401.783 61.498,401.935 50.323,394.531 48.395 C 393.679 48.173,391.745 48.128,382.947 48.128 L 372.386 48.128 372.334 37.210 C 372.275 24.911,372.350 25.598,370.835 23.398 C 369.169 20.979,365.690 19.770,362.764 20.591 " stroke="none" fill="#e41d2d" fill-rule="evenodd"></path><path id="path3" d="M90.196 32.919 L 90.196 65.839 88.725 64.416 C 77.484 53.537,54.659 50.889,36.631 58.370 C 17.184 66.440,3.847 85.543,0.724 109.804 C -3.286 140.950,7.369 168.543,28.431 181.560 C 49.800 194.765,79.182 190.267,93.217 171.642 L 94.251 170.270 94.343 171.097 C 94.394 171.553,94.745 175.154,95.123 179.100 L 95.811 186.275 114.777 186.275 L 133.742 186.275 133.629 184.269 C 133.486 181.744,133.210 175.836,132.945 169.608 C 132.801 166.215,132.721 140.482,132.673 82.398 L 132.606 0.000 111.401 0.000 L 90.196 0.000 90.196 32.919 M129.466 82.130 C 129.517 134.364,129.610 163.046,129.738 166.578 C 130.123 177.167,130.307 181.565,130.400 182.398 L 130.494 183.246 114.580 183.201 L 98.665 183.155 97.746 173.886 C 97.241 168.788,96.819 164.597,96.809 164.572 C 96.799 164.548,96.169 164.528,95.408 164.528 L 94.025 164.528 93.108 166.096 C 82.132 184.875,55.204 191.624,33.891 180.939 C 14.566 171.250,3.023 149.377,3.031 122.463 C 3.040 91.275,17.924 67.494,42.335 59.663 C 60.224 53.925,82.323 58.882,89.643 70.276 L 90.416 71.480 91.910 71.480 L 93.405 71.480 93.405 37.255 L 93.405 3.030 111.396 3.030 L 129.387 3.030 129.466 82.130 M63.369 84.479 C 50.447 86.756,41.812 98.103,40.005 115.182 C 38.759 126.961,41.076 138.715,46.133 146.263 C 57.840 163.738,83.989 161.148,91.180 141.800 C 93.067 136.723,93.404 133.498,93.402 120.499 C 93.401 107.814,93.218 105.277,92.056 101.800 C 87.854 89.234,76.226 82.213,63.369 84.479 M72.549 87.603 C 81.855 89.573,88.910 97.489,89.951 107.130 C 90.334 110.670,90.207 133.005,89.794 134.859 C 87.191 146.543,81.455 152.758,71.709 154.458 C 53.888 157.566,41.072 140.947,42.964 117.183 C 44.359 99.654,52.567 88.977,65.954 87.277 C 67.167 87.123,71.230 87.324,72.549 87.603 M88.592 206.537 L 88.592 209.331 88.191 208.956 C 86.840 207.690,84.049 207.949,82.585 209.476 C 80.734 211.407,80.689 215.447,82.496 217.351 C 83.946 218.880,86.912 219.001,88.217 217.586 C 88.722 217.039,88.948 217.116,88.948 217.836 C 88.948 218.348,88.969 218.360,89.866 218.360 L 90.784 218.360 90.669 216.889 C 90.606 216.081,90.554 212.792,90.554 209.581 L 90.553 203.743 89.572 203.743 L 88.592 203.743 88.592 206.537 M110.160 206.537 L 110.160 209.331 109.759 208.956 C 108.408 207.690,105.617 207.949,104.154 209.476 C 102.303 211.407,102.257 215.447,104.065 217.351 C 105.515 218.880,108.481 219.001,109.785 217.586 C 110.290 217.039,110.517 217.116,110.517 217.836 C 110.517 218.348,110.538 218.360,111.435 218.360 L 112.352 218.360 112.238 216.889 C 112.175 216.081,112.123 212.792,112.122 209.581 L 112.121 203.743 111.141 203.743 L 110.160 203.743 110.160 206.537 M170.410 211.052 L 170.410 218.360 171.390 218.360 L 172.371 218.360 172.371 211.052 L 172.371 203.743 171.390 203.743 L 170.410 203.743 170.410 211.052 M284.670 206.537 L 284.670 209.331 284.269 208.956 C 282.918 207.690,280.127 207.949,278.663 209.476 C 276.813 211.407,276.767 215.447,278.575 217.351 C 280.025 218.880,282.990 219.001,284.295 217.586 C 284.800 217.039,285.027 217.116,285.027 217.836 C 285.027 218.348,285.048 218.360,285.944 218.360 L 286.862 218.360 286.748 216.889 C 286.685 216.081,286.633 212.792,286.632 209.581 L 286.631 203.743 285.651 203.743 L 284.670 203.743 284.670 206.537 M270.613 205.570 L 269.720 207.041 270.466 207.099 C 271.275 207.162,271.202 207.222,273.117 204.947 L 273.830 204.100 272.668 204.100 L 271.505 204.100 270.613 205.570 M23.930 204.395 L 23.529 204.481 23.529 211.510 L 23.529 218.538 26.166 218.538 C 32.457 218.538,34.833 216.512,34.844 211.138 C 34.851 207.632,33.803 205.818,31.160 204.766 C 30.231 204.396,25.144 204.135,23.930 204.395 M37.611 204.503 C 37.050 204.791,36.886 206.023,37.348 206.484 C 38.071 207.208,39.394 206.630,39.394 205.590 C 39.394 204.590,38.502 204.046,37.611 204.503 M77.362 204.503 C 76.801 204.791,76.637 206.023,77.098 206.484 C 77.822 207.208,79.144 206.630,79.144 205.590 C 79.144 204.590,78.252 204.046,77.362 204.503 M248.197 204.706 C 246.020 205.720,245.367 208.372,246.820 210.297 C 247.127 210.703,247.867 211.170,249.270 211.842 C 251.639 212.977,252.228 213.545,252.228 214.696 C 252.228 216.677,249.876 217.535,247.326 216.485 C 246.738 216.243,246.240 216.044,246.219 216.044 C 246.109 216.041,245.800 217.539,245.871 217.725 C 246.379 219.049,251.926 218.701,253.232 217.263 C 255.452 214.820,254.248 211.790,250.450 210.261 C 246.392 208.627,248.094 204.691,252.228 206.150 C 252.645 206.297,253.050 206.417,253.128 206.417 C 253.323 206.417,253.707 205.207,253.600 204.928 C 253.313 204.181,249.648 204.030,248.197 204.706 M144.742 211.408 L 144.742 218.360 145.633 218.360 L 146.524 218.360 146.524 211.408 L 146.524 204.456 145.633 204.456 L 144.742 204.456 144.742 211.408 M196.476 204.576 C 195.575 204.938,195.467 206.774,196.346 206.774 C 196.854 206.774,196.970 206.707,196.970 206.412 C 196.970 205.866,197.455 205.789,198.212 206.214 C 199.646 207.020,200.891 206.534,200.891 205.169 C 200.891 204.345,199.969 204.052,199.770 204.813 C 199.719 205.009,199.546 205.169,199.386 205.169 C 199.226 205.169,198.780 205.009,198.396 204.813 C 197.729 204.473,196.966 204.379,196.476 204.576 M29.684 206.158 C 31.791 206.736,32.886 208.470,32.887 211.234 C 32.889 215.043,30.896 216.934,26.881 216.934 L 25.307 216.934 25.354 211.453 L 25.401 205.971 26.381 205.878 C 27.599 205.763,28.527 205.842,29.684 206.158 M70.945 208.222 C 67.642 208.849,67.529 212.258,70.758 213.840 C 72.927 214.902,73.329 215.531,72.475 216.523 C 71.951 217.131,70.389 217.222,69.358 216.704 C 68.603 216.325,68.648 216.320,68.469 216.800 C 68.042 217.941,68.043 217.945,68.804 218.250 C 73.782 220.241,77.245 214.940,72.458 212.655 C 70.722 211.826,70.410 211.557,70.410 210.888 C 70.410 209.867,71.683 209.387,73.071 209.884 C 73.941 210.196,74.015 210.161,74.302 209.302 C 74.599 208.414,72.869 207.858,70.945 208.222 M188.770 208.222 C 185.467 208.849,185.354 212.258,188.583 213.840 C 190.752 214.902,191.154 215.531,190.300 216.523 C 189.777 217.131,188.214 217.222,187.183 216.704 C 186.429 216.325,186.473 216.320,186.294 216.800 C 185.867 217.941,185.868 217.945,186.629 218.250 C 191.607 220.241,195.070 214.940,190.284 212.655 C 188.547 211.826,188.235 211.557,188.235 210.888 C 188.235 209.867,189.508 209.387,190.897 209.884 C 191.766 210.196,191.840 210.161,192.127 209.302 C 192.424 208.414,190.694 207.858,188.770 208.222 M208.185 208.200 C 202.340 209.201,202.989 218.575,208.904 218.572 C 212.185 218.571,214.015 216.541,213.875 213.059 C 213.736 209.584,211.459 207.639,208.185 208.200 M53.517 208.658 C 50.704 210.060,50.020 215.122,52.346 217.325 C 54.062 218.950,59.351 219.055,59.218 217.461 C 59.153 216.679,58.987 216.524,58.440 216.732 C 55.799 217.736,52.941 216.409,52.941 214.177 L 52.941 213.725 56.417 213.725 L 59.893 213.725 59.893 212.773 C 59.893 209.080,56.746 207.049,53.517 208.658 M64.927 208.555 C 64.608 208.750,64.187 209.171,63.992 209.490 L 63.638 210.071 63.637 209.225 L 63.636 208.378 62.718 208.378 L 61.800 208.378 61.916 210.277 C 61.980 211.322,62.032 213.568,62.032 215.268 L 62.032 218.360 62.903 218.360 L 63.774 218.360 63.844 215.285 C 63.935 211.266,64.560 209.982,66.426 209.982 L 67.023 209.982 67.023 209.091 L 67.023 208.200 66.266 208.200 C 65.824 208.201,65.265 208.349,64.927 208.555 M94.474 208.523 C 93.738 208.816,93.674 208.891,93.700 209.432 C 93.741 210.281,93.970 210.426,94.676 210.050 C 96.389 209.137,98.752 209.927,98.752 211.411 C 98.752 211.940,98.747 211.943,97.715 211.943 C 94.066 211.943,91.698 214.742,93.225 217.248 C 94.086 218.658,96.576 219.022,98.167 217.969 C 98.921 217.470,99.109 217.483,99.109 218.033 C 99.109 218.304,99.253 218.360,99.958 218.360 L 100.808 218.360 100.744 214.572 C 100.671 210.267,100.535 209.695,99.367 208.804 C 98.491 208.135,95.829 207.982,94.474 208.523 M116.975 208.658 C 114.162 210.060,113.478 215.122,115.804 217.325 C 117.520 218.950,122.809 219.055,122.676 217.461 C 122.611 216.679,122.445 216.524,121.898 216.732 C 119.257 217.736,116.399 216.409,116.399 214.177 L 116.399 213.725 119.875 213.725 L 123.351 213.725 123.351 212.773 C 123.351 209.080,120.204 207.049,116.975 208.658 M131.592 208.658 C 128.779 210.060,128.095 215.122,130.420 217.325 C 132.137 218.950,137.426 219.055,137.293 217.461 C 137.228 216.679,137.062 216.524,136.515 216.732 C 133.873 217.736,131.016 216.409,131.016 214.177 L 131.016 213.725 134.492 213.725 L 137.968 213.725 137.968 212.773 C 137.968 209.080,134.821 207.049,131.592 208.658 M152.913 208.551 C 152.554 208.745,152.093 209.118,151.888 209.378 L 151.515 209.852 151.515 209.115 L 151.515 208.378 150.624 208.378 L 149.733 208.378 149.733 213.369 L 149.733 218.360 150.696 218.360 L 151.660 218.360 151.721 215.018 C 151.797 210.905,152.151 210.102,153.996 209.855 C 155.900 209.599,156.382 210.603,156.474 215.018 L 156.545 218.360 157.521 218.360 L 158.498 218.360 158.436 214.661 C 158.365 210.445,158.190 209.756,156.942 208.804 C 156.042 208.117,153.953 207.986,152.913 208.551 M163.694 208.492 C 159.702 209.906,159.359 216.336,163.181 218.115 C 164.207 218.593,166.252 218.693,167.676 218.334 L 168.486 218.130 168.371 217.405 C 168.225 216.493,168.256 216.515,167.441 216.742 C 164.583 217.535,162.504 216.067,162.529 213.273 C 162.552 210.705,165.038 209.058,167.486 209.989 C 168.069 210.211,168.206 210.095,168.362 209.247 C 168.549 208.228,165.728 207.771,163.694 208.492 M195.722 208.523 C 194.985 208.816,194.922 208.891,194.948 209.432 C 194.989 210.281,195.218 210.426,195.924 210.050 C 197.637 209.137,200.000 209.927,200.000 211.411 C 200.000 211.940,199.995 211.943,198.963 211.943 C 195.314 211.943,192.945 214.742,194.473 217.248 C 195.333 218.658,197.824 219.022,199.414 217.969 C 200.169 217.470,200.357 217.483,200.357 218.033 C 200.357 218.304,200.501 218.360,201.206 218.360 L 202.056 218.360 201.992 214.572 C 201.919 210.267,201.782 209.695,200.615 208.804 C 199.739 208.135,197.077 207.982,195.722 208.523 M223.679 208.551 C 223.320 208.745,222.859 209.118,222.654 209.378 L 222.282 209.852 222.282 209.115 L 222.282 208.378 221.390 208.378 L 220.499 208.378 220.499 213.369 L 220.499 218.360 221.463 218.360 L 222.426 218.360 222.488 215.018 C 222.563 210.905,222.917 210.102,224.762 209.855 C 226.666 209.599,227.148 210.603,227.241 215.018 L 227.311 218.360 228.288 218.360 L 229.265 218.360 229.203 214.661 C 229.132 210.445,228.956 209.756,227.709 208.804 C 226.808 208.117,224.720 207.986,223.679 208.551 M232.799 208.523 C 232.062 208.816,231.999 208.891,232.025 209.432 C 232.066 210.281,232.294 210.426,233.001 210.050 C 234.714 209.137,237.077 209.927,237.077 211.411 C 237.077 211.940,237.072 211.943,236.039 211.943 C 232.391 211.943,230.022 214.742,231.550 217.248 C 232.410 218.658,234.900 219.022,236.491 217.969 C 237.245 217.470,237.433 217.483,237.433 218.033 C 237.433 218.304,237.578 218.360,238.283 218.360 L 239.132 218.360 239.068 214.572 C 238.995 210.267,238.859 209.695,237.692 208.804 C 236.816 208.135,234.154 207.982,232.799 208.523 M257.398 208.523 C 256.661 208.816,256.598 208.891,256.624 209.432 C 256.665 210.281,256.893 210.426,257.600 210.050 C 259.312 209.137,261.676 209.927,261.676 211.411 C 261.676 211.940,261.671 211.943,260.638 211.943 C 256.990 211.943,254.621 214.742,256.149 217.248 C 257.009 218.658,259.499 219.022,261.090 217.969 C 261.844 217.470,262.032 217.483,262.032 218.033 C 262.032 218.304,262.177 218.360,262.882 218.360 L 263.731 218.360 263.667 214.572 C 263.594 210.267,263.458 209.695,262.291 208.804 C 261.414 208.135,258.753 207.982,257.398 208.523 M291.306 208.658 C 288.494 210.060,287.810 215.122,290.135 217.325 C 291.852 218.950,297.141 219.055,297.008 217.461 C 296.943 216.679,296.777 216.524,296.230 216.732 C 293.588 217.736,290.731 216.409,290.731 214.177 L 290.731 213.725 294.207 213.725 L 297.683 213.725 297.683 212.773 C 297.683 209.080,294.536 207.049,291.306 208.658 M37.255 213.369 L 37.255 218.360 38.235 218.360 L 39.216 218.360 39.216 213.369 L 39.216 208.378 38.235 208.378 L 37.255 208.378 37.255 213.369 M40.994 208.512 C 40.992 208.585,41.814 210.830,42.821 213.501 L 44.652 218.356 45.648 218.358 L 46.643 218.360 48.480 213.694 C 50.828 207.731,50.715 208.347,49.444 208.413 L 48.396 208.467 47.072 212.301 L 45.749 216.136 44.603 212.836 C 43.973 211.021,43.372 209.276,43.267 208.957 C 43.086 208.404,41.010 207.997,40.994 208.512 M77.005 213.369 L 77.005 218.360 77.986 218.360 L 78.966 218.360 78.966 213.369 L 78.966 208.378 77.986 208.378 L 77.005 208.378 77.005 213.369 M175.224 211.988 C 175.225 215.867,175.339 216.621,176.053 217.470 C 177.335 218.993,180.386 218.933,181.623 217.361 L 181.996 216.886 181.996 217.623 L 181.996 218.360 182.888 218.360 L 183.779 218.360 183.779 213.369 L 183.779 208.378 182.812 208.378 L 181.846 208.378 181.788 211.720 C 181.715 215.890,181.205 216.934,179.242 216.934 C 177.553 216.934,177.184 215.990,177.184 211.672 L 177.184 208.378 176.203 208.378 L 175.223 208.378 175.224 211.988 M266.489 211.988 C 266.490 215.867,266.605 216.621,267.319 217.470 C 268.600 218.993,271.652 218.933,272.889 217.361 L 273.262 216.886 273.262 217.623 L 273.262 218.360 274.153 218.360 L 275.045 218.360 275.045 213.369 L 275.045 208.378 274.078 208.378 L 273.112 208.378 273.053 211.720 C 272.980 215.890,272.471 216.934,270.508 216.934 C 268.819 216.934,268.449 215.990,268.449 211.672 L 268.449 208.378 267.469 208.378 L 266.488 208.378 266.489 211.988 M56.679 209.854 C 57.276 210.156,57.932 211.170,57.932 211.791 L 57.932 212.299 55.437 212.299 C 54.008 212.299,52.941 212.228,52.941 212.133 C 52.941 210.491,55.208 209.109,56.679 209.854 M87.646 210.368 C 88.682 211.336,89.020 214.357,88.236 215.643 C 87.048 217.592,84.133 217.214,83.408 215.019 C 82.281 211.605,85.356 208.230,87.646 210.368 M109.214 210.368 C 110.251 211.336,110.589 214.357,109.805 215.643 C 108.617 217.592,105.701 217.214,104.977 215.019 C 103.850 211.605,106.925 208.230,109.214 210.368 M120.137 209.854 C 120.734 210.156,121.390 211.170,121.390 211.791 L 121.390 212.299 118.895 212.299 C 117.466 212.299,116.399 212.228,116.399 212.133 C 116.399 210.491,118.666 209.109,120.137 209.854 M134.754 209.854 C 135.351 210.156,136.007 211.170,136.007 211.791 L 136.007 212.299 133.512 212.299 C 132.083 212.299,131.016 212.228,131.016 212.133 C 131.016 210.491,133.283 209.109,134.754 209.854 M210.502 210.119 C 211.921 211.168,212.340 213.878,211.346 215.571 C 209.692 218.385,206.203 216.902,206.203 213.384 C 206.203 210.556,208.615 208.724,210.502 210.119 M283.724 210.368 C 284.760 211.336,285.099 214.357,284.315 215.643 C 283.127 217.592,280.211 217.214,279.486 215.019 C 278.360 211.605,281.435 208.230,283.724 210.368 M294.469 209.854 C 295.066 210.156,295.722 211.170,295.722 211.791 L 295.722 212.299 293.226 212.299 C 291.797 212.299,290.731 212.228,290.731 212.133 C 290.731 210.491,292.997 209.109,294.469 209.854 M98.929 213.948 C 98.926 216.520,96.639 218.095,95.181 216.530 C 93.780 215.026,95.330 213.568,98.708 213.214 C 98.855 213.199,98.930 213.448,98.929 213.948 M200.177 213.948 C 200.174 216.520,197.887 218.095,196.429 216.530 C 195.028 215.026,196.578 213.568,199.955 213.214 C 200.103 213.199,200.178 213.448,200.177 213.948 M237.254 213.948 C 237.251 216.520,234.963 218.095,233.506 216.530 C 232.104 215.026,233.655 213.568,237.032 213.214 C 237.179 213.199,237.255 213.448,237.254 213.948 M261.853 213.948 C 261.849 216.520,259.562 218.095,258.104 216.530 C 256.703 215.026,258.254 213.568,261.631 213.214 C 261.778 213.199,261.853 213.448,261.853 213.948 " stroke="none" fill="#040404" fill-rule="evenodd"></path><path id="path4" d="" stroke="none" fill="#5c58c4" fill-rule="evenodd"></path></g></svg>