<?xml version="1.0" encoding="utf-8"?>
<!-- Generator: Adobe Illustrator 26.1.0, SVG Export Plug-In . SVG Version: 6.00 Build 0)  -->
<svg version="1.0" id="Camada_1" xmlns="http://www.w3.org/2000/svg" xmlns:xlink="http://www.w3.org/1999/xlink" x="0px" y="0px"
	 viewBox="0 0 708.66 708.66" enable-background="new 0 0 708.66 708.66" xml:space="preserve">
<g>
	<path fill="none" stroke="#000000" stroke-width="4" stroke-miterlimit="10" d="M287.69,265.38v139.16
		c0,13.57,0.49,27.88,0.99,36.02h-33.31l-1.73-17.77h-0.49c-7.65,13.57-22.21,20.48-37.75,20.48c-28.62,0-51.57-24.43-51.57-61.93
		c-0.25-40.71,25.17-64.15,54.04-64.15c14.8,0,26.4,5.18,31.83,13.57h0.49v-65.39H287.69z M250.19,370.99
		c0-1.97-0.25-4.69-0.49-6.66c-2.22-10.12-10.36-18.51-21.96-18.51c-17.03,0-25.91,15.3-25.91,34.3c0,20.48,10.12,33.31,25.66,33.31
		c10.86,0,19.49-7.4,21.71-18.01c0.74-2.71,0.99-5.43,0.99-8.64V370.99z"/>
	<path fill="#045781" d="M337.43,340.22c-6.45-2.64-12.99-4.85-19.63-6.58v106.93h37.5v-91.44c-0.14-0.07-0.28-0.15-0.43-0.24
		C349.31,345.48,343.45,342.69,337.43,340.22z M317.8,319.91v9.5c4.78,1.13,9.53,2.46,14.19,4.37c7.77,3.2,15.56,6.27,23.01,10.19
		c0.1,0.06,0.21,0.11,0.31,0.16v-24.23H317.8z M336.55,267.35c-12.09,0-19.99,8.14-19.74,19c-0.25,10.37,7.65,18.75,19.49,18.75
		c12.34,0,20.24-8.39,20.24-18.75C356.29,275.5,348.64,267.35,336.55,267.35z"/>
	<path fill="#85C5EE" d="M385.16,407.75c6.91,4.19,21.22,9.13,32.32,9.13c11.35,0,16.04-3.95,16.04-10.12
		c0-6.17-3.7-9.13-17.76-13.82c-24.92-8.39-34.55-21.96-34.3-36.27c0-22.45,19.25-39.48,49.1-39.48c14.06,0,26.65,3.21,34.05,6.91
		l-6.66,25.91c-5.43-2.96-15.79-6.91-26.16-6.91c-9.13,0-14.31,3.7-14.31,9.87c0,5.67,4.69,8.64,19.49,13.82
		c22.95,7.9,32.57,19.49,32.82,37.26c0,22.45-17.77,38.99-52.31,38.99c-15.79,0-29.85-3.46-38.99-8.39L385.16,407.75z"/>
	<path fill-rule="evenodd" clip-rule="evenodd" fill="#FFFFFF" d="M358.29,348.34c-0.77,1.35-1.82,1.38-2.98,0.79v-5
		c0.65,0.34,1.3,0.7,1.9,1.13C358.25,346.02,359.05,346.99,358.29,348.34z"/>
	<path fill-rule="evenodd" clip-rule="evenodd" fill="#DB0E1E" d="M503.92,324.39c-0.39,0-0.69,0-0.98,0c-6.08,0-12.16,0-18.25,0
		c-3.3,0-6.07-2-6.97-4.98c-1.43-4.81,1.93-9.36,6.95-9.37c6.08-0.02,12.16,0,18.25,0c0.29,0,0.59,0,0.95,0
		c0.02-0.33,0.04-0.6,0.04-0.87c0-6.08-0.01-12.17,0-18.24c0-3.4,1.94-6.15,4.96-7.08c4.84-1.48,9.37,1.92,9.39,7.08
		c0.02,6.05,0,12.11,0,18.16c0,0.27,0,0.54,0,0.95c0.38,0,0.69,0,1,0c5.98,0,11.95,0.01,17.92,0c2.64-0.01,4.84,0.88,6.34,3.11
		c1.58,2.36,1.71,4.9,0.43,7.41c-1.32,2.56-3.54,3.82-6.41,3.83c-6.03,0.03-12.05,0.01-18.08,0.01c-0.35,0-0.71,0-1.2,0
		c0,0.39,0,0.73,0,1.08c0,6.05,0.02,12.11-0.01,18.16c-0.02,4.23-3.17,7.33-7.34,7.27c-3.92-0.05-6.97-3.15-7-7.21
		c-0.03-6.08-0.01-12.17-0.01-18.25C503.92,325.12,503.92,324.8,503.92,324.39z"/>
</g>
<g>
</g>
<g>
</g>
<g>
</g>
<g>
</g>
<g>
</g>
<g>
</g>
<g>
</g>
<g>
</g>
<g>
</g>
<g>
</g>
<g>
</g>
<g>
</g>
<g>
</g>
<g>
</g>
<g>
</g>
</svg>
